<?xml version="1.0" standalone="no"?>
<!DOCTYPE svg PUBLIC "-//W3C//DTD SVG 20010904//EN"
 "http://www.w3.org/TR/2001/REC-SVG-20010904/DTD/svg10.dtd">
<svg version="1.0" xmlns="http://www.w3.org/2000/svg"
 width="640.000000pt" height="640.000000pt" viewBox="0 0 640.000000 640.000000"
 preserveAspectRatio="xMidYMid meet">
<metadata>
Created by potrace 1.14, written by Peter Selinger 2001-2017
</metadata>
<g transform="translate(0.000000,640.000000) scale(0.100000,-0.100000)"
fill="#000000" stroke="none">
<path d="M0 3725 l0 -2675 68 1 c62 2 64 2 27 10 -25 5 8 6 90 4 185 -4 437
-67 578 -143 67 -36 51 -39 -30 -4 -90 39 -179 69 -228 77 -39 6 -39 5 15 -18
103 -45 124 -58 110 -70 -10 -9 -14 -9 -17 1 -3 6 -12 12 -22 12 -9 0 -23 6
-30 13 -10 10 -15 8 -26 -7 -13 -17 -18 -17 -47 -6 -43 16 -67 25 -101 39 -15
6 -39 11 -52 11 -14 0 -51 9 -83 20 -51 18 -205 50 -239 50 -10 0 -13 -111
-13 -520 l0 -520 1325 0 1324 0 -21 38 c-78 136 -122 210 -136 227 -9 11 0 4
20 -15 20 -19 34 -38 31 -42 -2 -5 1 -8 7 -8 6 0 8 -4 5 -10 -3 -5 -1 -10 5
-10 6 0 8 -4 5 -10 -3 -5 -2 -10 2 -10 5 0 17 -14 27 -30 9 -17 22 -27 28 -24
7 4 8 2 4 -4 -8 -14 37 -95 47 -85 4 3 7 1 7 -5 0 -8 29 -12 95 -12 52 0 95 3
95 8 -1 17 -67 112 -74 105 -4 -4 -4 1 0 12 4 11 3 17 -1 12 -5 -4 -15 7 -22
25 -12 27 -16 30 -24 18 -9 -13 -10 -13 -6 1 7 21 -47 128 -114 229 -45 66
-56 77 -69 68 -12 -10 -13 -10 -2 2 19 22 14 32 -10 24 -21 -6 -21 -5 -9 10
13 15 13 19 0 27 -8 5 -20 7 -27 4 -7 -3 -10 0 -7 6 4 6 13 8 21 5 8 -3 11 0
7 10 -6 17 -15 18 -33 2 -12 -11 -12 -10 -2 3 7 9 10 24 6 33 -8 21 -25 10
-18 -12 5 -14 4 -14 -4 -2 -6 8 -8 28 -5 44 l6 30 -44 -34 -44 -35 35 41 c33
38 36 40 54 25 10 -9 34 -41 53 -71 59 -93 157 -220 168 -216 20 6 16 37 -13
98 -35 76 -53 143 -40 156 6 6 -3 24 -22 46 -36 40 -30 44 43 27 46 -11 54 -1
22 29 -31 29 -31 36 0 44 25 6 35 39 15 51 -12 7 -14 62 -2 68 9 7 8 134 -3
171 l-8 29 44 -30 c42 -28 45 -29 62 -11 9 10 17 20 17 23 0 10 35 42 42 38 4
-2 10 2 13 8 4 5 13 8 20 6 6 -3 19 2 28 11 52 55 127 91 127 61 0 -7 9 -9 25
-5 14 4 35 1 48 -5 12 -6 -3 13 -34 43 -30 29 -46 46 -35 37 12 -9 75 -53 141
-97 66 -44 140 -100 165 -124 40 -39 50 -44 105 -48 l60 -6 -54 -27 c-29 -14
-58 -24 -62 -21 -5 3 -9 0 -9 -6 0 -29 161 33 218 85 26 23 58 48 71 55 23 12
22 9 -8 -29 -18 -23 -49 -53 -67 -68 l-34 -26 24 -22 c14 -13 44 -25 73 -29
85 -12 85 -12 67 -49 -9 -18 -31 -48 -50 -69 -70 -78 -65 -108 7 -38 23 22 49
40 58 40 24 0 60 30 44 36 -23 10 -13 23 22 30 19 3 38 10 41 15 3 5 31 23 63
39 59 29 101 31 101 4 0 -8 9 -14 20 -14 11 0 20 4 20 10 0 5 13 16 30 25 32
17 40 35 14 35 -21 0 -11 47 14 67 19 16 140 11 187 -7 25 -9 32 -7 56 16 29
28 59 99 51 123 -5 16 -99 61 -129 61 -12 0 -28 6 -35 13 -7 7 -29 18 -48 25
-32 10 -30 11 20 4 30 -4 129 -7 220 -7 143 0 174 3 237 23 97 30 101 44 5 20
-86 -22 -284 -28 -362 -10 l-45 10 33 7 c17 4 32 11 32 15 0 3 6 7 14 7 8 0
37 14 64 32 27 17 59 33 70 36 26 5 63 26 83 48 9 9 29 17 45 17 16 1 67 9
114 19 88 19 163 54 215 101 17 15 52 40 78 55 56 32 57 45 0 17 -94 -48 -328
-73 -503 -54 -82 9 -80 9 76 11 282 2 403 38 583 172 85 63 114 90 118 111 3
15 9 25 14 22 5 -3 9 -2 9 3 0 4 15 25 34 46 19 21 47 64 64 95 38 71 94 211
90 224 -2 5 -49 -40 -106 -101 -105 -112 -196 -188 -267 -222 -34 -17 -37 -17
-16 -2 42 31 122 116 149 158 26 41 112 206 112 215 0 3 -5 -2 -11 -10 -9 -13
-10 -12 -5 3 14 44 81 186 85 181 8 -8 40 79 40 110 1 16 12 75 26 130 15 56
32 126 40 156 22 89 38 314 32 445 -10 189 -64 448 -137 660 -53 153 -53 157
-25 96 39 -82 100 -272 129 -403 84 -377 94 -730 31 -1101 -14 -78 -25 -146
-25 -151 0 -4 13 6 29 23 16 17 34 31 39 31 13 0 66 159 92 277 11 51 26 173
33 270 l12 178 7 -95 c14 -186 20 -253 32 -320 1 -3 4 -9 7 -15 3 -5 7 -32 8
-60 1 -27 6 -54 11 -59 5 -5 6 -14 4 -21 -3 -7 -1 -16 5 -20 6 -3 11 -16 11
-28 0 -13 9 -40 20 -62 11 -22 20 -52 20 -67 0 -15 5 -30 10 -33 6 -3 10 -12
10 -18 0 -7 -4 -6 -10 3 -13 20 -12 7 1 -27 23 -55 40 -173 42 -278 0 -27 5
-53 11 -57 7 -5 5 -8 -4 -8 -13 0 -13 -1 0 -10 10 -6 11 -10 3 -10 -7 0 -13
-9 -13 -21 0 -11 4 -18 9 -14 6 3 8 -3 6 -15 -2 -11 1 -22 6 -26 6 -4 6 -11
-1 -19 -8 -10 -8 -19 2 -35 9 -13 10 -23 3 -28 -6 -4 -12 -32 -13 -62 -2 -30
-8 -58 -15 -62 -7 -4 -7 -8 -2 -8 6 0 10 -20 10 -44 0 -25 -3 -42 -7 -40 -9 6
-5 -32 5 -42 3 -4 2 -15 -4 -25 -5 -11 -7 -19 -3 -19 3 0 2 -6 -4 -13 -6 -6
-9 -31 -9 -54 1 -22 -1 -39 -5 -36 -5 2 -8 -2 -9 -9 -2 -36 -11 -74 -20 -83
-5 -5 -9 -16 -9 -25 0 -12 2 -12 9 -2 6 11 9 9 13 -6 4 -14 2 -19 -7 -15 -10
3 -12 -2 -8 -16 3 -12 1 -21 -6 -21 -6 0 -11 -10 -10 -22 0 -22 1 -22 9 -3 7
16 9 17 9 3 1 -9 -4 -20 -10 -23 -6 -4 -8 -13 -5 -21 3 -7 -2 -20 -10 -29 -9
-8 -11 -15 -6 -15 7 0 6 -13 0 -35 -6 -19 -14 -33 -17 -31 -3 2 -7 -8 -8 -22
-2 -34 -12 -81 -23 -107 -4 -11 -13 -33 -19 -48 -6 -15 -11 -38 -11 -50 0 -17
-2 -19 -9 -8 -7 11 -11 5 -16 -22 -4 -22 -11 -34 -18 -30 -6 4 -8 0 -4 -9 3
-9 0 -21 -6 -27 -8 -8 -8 -11 1 -11 7 0 12 -5 12 -11 0 -5 -4 -8 -9 -5 -5 3
-11 -1 -15 -9 -3 -8 -13 -15 -22 -15 -14 0 -15 -2 -3 -17 12 -15 12 -16 -4
-10 -14 5 -19 0 -24 -23 -3 -17 -9 -30 -14 -30 -5 0 -9 -5 -9 -11 0 -7 -9 -20
-21 -30 -11 -10 -18 -22 -15 -28 4 -5 -2 -12 -13 -16 -31 -9 -64 -43 -55 -56
4 -8 3 -9 -4 -5 -7 4 -12 1 -12 -6 0 -8 -8 -20 -18 -29 -9 -8 -28 -30 -42 -48
-14 -18 -40 -48 -58 -67 -18 -19 -29 -40 -26 -46 5 -7 2 -9 -8 -5 -10 3 -20
-3 -28 -18 -7 -14 -17 -22 -22 -19 -4 3 -8 0 -8 -6 0 -6 -4 -9 -8 -6 -5 3 -38
-24 -74 -58 -62 -61 -131 -106 -161 -106 -8 0 -20 -6 -26 -14 -7 -8 -21 -13
-32 -11 -10 2 -19 0 -19 -6 0 -5 -7 -9 -15 -9 -9 0 -18 -7 -21 -15 -4 -8 -10
-13 -14 -10 -5 3 -13 -3 -19 -12 -6 -10 -11 -14 -11 -10 0 4 -6 2 -14 -5 -8
-7 -12 -16 -9 -21 2 -4 341 -7 754 -7 l749 0 0 3200 0 3200 -3200 0 -3200 0 0
-2675z m3875 2027 c183 -23 314 -62 482 -146 102 -50 226 -132 253 -167 3 -4
36 -41 74 -83 37 -42 92 -117 122 -167 29 -50 71 -109 93 -132 61 -64 101
-111 101 -119 0 -3 15 -21 33 -40 18 -19 51 -63 74 -98 23 -36 51 -77 63 -92
11 -14 20 -31 20 -37 0 -5 23 -29 50 -53 91 -78 192 -215 245 -331 41 -89 31
-96 -46 -33 -43 36 -89 89 -129 148 -142 209 -207 296 -261 353 -41 43 -60 73
-69 105 -20 78 -151 197 -283 258 -55 26 -70 22 -61 -15 7 -25 6 -26 -27 -18
-19 4 -70 11 -114 15 -44 4 -127 20 -185 34 -58 15 -152 31 -209 36 -57 5
-106 11 -108 13 -2 3 10 7 27 11 27 5 30 9 25 27 -7 21 -5 22 36 16 l44 -6
-52 33 c-71 45 -184 61 -371 53 -119 -4 -126 -4 -57 5 44 5 152 7 240 4 l160
-4 -90 14 c-63 10 -134 13 -235 10 -197 -7 -330 -33 -519 -101 -40 -15 -75
-25 -77 -22 -7 6 113 58 193 83 40 12 125 32 190 45 65 12 120 24 122 26 7 5
-41 43 -56 43 -7 0 -13 4 -13 8 0 12 -76 48 -145 68 -84 24 -317 24 -440 0
-304 -58 -644 -197 -866 -353 -61 -43 -121 -84 -133 -92 -103 -70 -269 -237
-380 -386 -80 -106 -225 -365 -240 -429 -18 -73 -138 -333 -199 -428 -18 -29
-54 -95 -80 -145 l-46 -93 27 0 c48 0 72 -12 88 -41 8 -17 10 -29 4 -29 -5 0
-10 5 -10 11 0 12 -61 39 -90 39 -15 0 -26 -13 -40 -46 -28 -64 -27 -77 5 -62
30 13 75 -3 75 -27 0 -14 -3 -14 -30 0 -37 19 -54 19 -71 -2 -35 -42 -58 -267
-40 -394 16 -115 35 -178 87 -287 24 -52 44 -98 44 -103 0 -4 29 -47 65 -94
36 -46 65 -89 65 -95 0 -6 10 -8 25 -4 23 6 25 4 25 -30 0 -40 -16 -48 -30
-14 -7 18 -9 19 -9 5 -2 -33 30 -92 72 -134 47 -49 57 -52 57 -19 0 31 6 34
53 28 50 -6 60 -27 36 -77 -11 -23 -19 -55 -17 -75 3 -38 0 -39 -64 -26 -18 3
-33 0 -43 -11 -12 -12 -27 -14 -61 -9 -47 6 -89 -7 -78 -25 11 -18 -8 -111
-26 -129 -17 -17 -16 -18 21 -33 25 -10 42 -25 49 -43 14 -36 8 -39 -43 -26
-220 56 -228 57 -274 33 -43 -21 -83 -64 -83 -87 0 -9 11 -14 29 -14 17 0 32
-4 35 -9 7 -10 -131 -38 -140 -28 -3 3 -2 26 4 51 8 39 6 58 -15 124 -24 72
-57 156 -89 227 -8 17 -16 40 -19 50 -2 11 -10 43 -18 70 -30 107 -87 331 -92
360 -35 203 -45 746 -16 860 6 22 20 85 31 140 34 162 65 279 90 340 4 11 18
49 30 85 55 161 147 323 338 599 197 284 451 519 795 735 31 20 60 36 62 36 3
0 22 10 43 23 20 13 82 42 137 66 55 24 118 52 140 62 50 23 230 85 310 107
33 10 65 20 71 24 9 6 276 58 374 72 19 3 94 9 165 12 72 4 132 8 134 10 8 7
583 -5 656 -14z m-322 -449 c-7 -2 -21 -2 -30 0 -10 3 -4 5 12 5 17 0 24 -2
18 -5z m-70 -10 c-7 -2 -19 -2 -25 0 -7 3 -2 5 12 5 14 0 19 -2 13 -5z m-58
-13 c-11 -5 -27 -9 -35 -9 -9 0 -8 4 5 9 11 5 27 9 35 9 9 0 8 -4 -5 -9z m-70
-20 c-11 -5 -27 -9 -35 -9 -9 0 -8 4 5 9 11 5 27 9 35 9 9 0 8 -4 -5 -9z m435
-290 c0 -5 -4 -10 -10 -10 -5 0 -10 5 -10 10 0 6 5 10 10 10 6 0 10 -4 10 -10z
m-405 -30 c-3 -5 -11 -10 -16 -10 -6 0 -7 5 -4 10 3 6 11 10 16 10 6 0 7 -4 4
-10z m535 0 c0 -5 -4 -10 -10 -10 -5 0 -10 5 -10 10 0 6 5 10 10 10 6 0 10 -4
10 -10z m-625 -40 c-3 -5 -11 -10 -16 -10 -6 0 -7 5 -4 10 3 6 11 10 16 10 6
0 7 -4 4 -10z m906 -12 c3 -5 8 -9 10 -8 2 1 17 -3 32 -9 16 -6 34 -11 41 -11
7 0 16 -3 20 -7 4 -5 11 -8 14 -8 4 -1 17 -6 30 -13 14 -8 22 -9 22 -2 0 5 5
10 10 10 7 0 7 -8 -1 -22 -9 -18 -9 -20 0 -12 15 14 61 -4 61 -24 0 -9 7 -11
20 -7 11 4 20 3 19 -2 -5 -26 2 -42 16 -37 10 4 15 0 15 -11 0 -13 6 -16 23
-12 19 5 20 5 5 -6 -15 -12 -13 -15 13 -32 16 -11 29 -27 29 -36 0 -8 9 -25
20 -37 11 -12 20 -27 20 -35 0 -19 24 -67 33 -67 5 0 6 -4 2 -9 -3 -5 -1 -13
5 -16 8 -5 6 -14 -4 -30 -19 -28 -11 -61 17 -69 12 -3 18 -8 15 -11 -3 -4 -16
-2 -27 5 -29 15 -44 4 -30 -22 7 -13 7 -18 0 -14 -13 9 -52 -24 -44 -38 3 -6
3 -8 -2 -4 -4 4 -21 -2 -36 -13 -16 -11 -38 -21 -49 -22 -11 -1 -20 -4 -20 -8
0 -3 -14 -6 -31 -7 -17 0 -37 -6 -45 -13 -11 -9 -14 -9 -14 1 0 9 -8 7 -26 -5
-15 -9 -24 -12 -20 -7 9 15 -7 22 -49 24 -19 1 -35 6 -35 11 0 6 -9 2 -20 -8
-17 -15 -23 -16 -33 -5 -9 10 -9 11 0 6 9 -5 11 -2 6 10 -5 14 -7 14 -15 1 -7
-14 -12 -14 -36 -1 -15 7 -35 11 -45 8 -11 -4 -17 -1 -15 8 2 9 -7 12 -29 10
-18 -1 -33 3 -33 9 0 5 -4 8 -9 5 -5 -3 -11 1 -15 9 -3 8 -12 12 -19 9 -11 -4
-13 1 -9 22 4 24 2 25 -18 19 -15 -5 -20 -4 -16 4 8 12 -6 15 -18 4 -4 -4 -24
-8 -44 -9 -20 -1 -29 1 -19 3 9 3 15 8 12 13 -3 5 -1 11 5 15 14 9 12 28 -3
22 -14 -5 -39 18 -29 28 4 4 -4 4 -18 0 -14 -4 -22 -4 -17 0 4 5 0 17 -10 27
-18 20 -33 24 -33 8 0 -5 7 -10 15 -10 8 0 15 -4 15 -10 0 -5 -7 -10 -15 -10
-8 0 -15 5 -15 10 0 6 -7 10 -15 10 -8 0 -15 2 -15 5 0 12 41 49 56 51 25 4
29 14 6 14 -12 0 -22 5 -22 11 0 6 -9 8 -20 4 -16 -5 -20 -2 -20 19 0 31 -36
44 -72 25 l-23 -12 25 27 c21 24 22 26 5 20 -20 -7 -20 -6 -1 8 10 8 16 20 13
25 -4 6 11 25 33 43 l41 33 -22 24 c-16 17 -19 23 -8 24 10 0 10 2 2 6 -7 2
-13 12 -13 21 1 15 2 15 15 -2 8 -10 12 -22 10 -26 -5 -9 19 -20 41 -20 9 0
12 5 9 10 -4 7 3 8 22 4 27 -7 28 -7 9 12 -19 19 -19 19 2 22 12 2 22 7 22 12
0 5 10 10 23 12 12 2 21 9 20 16 -2 8 10 12 32 12 19 0 35 5 35 10 0 6 15 8
40 4 29 -5 40 -3 40 6 0 7 7 10 16 6 9 -4 23 -1 30 5 8 6 23 9 34 6 11 -3 20
-1 20 5 0 11 42 0 51 -14z m-326 -19 c-7 -10 -35 -1 -35 11 0 5 9 6 20 3 11
-3 17 -9 15 -14z m-155 -29 c0 -5 -2 -10 -4 -10 -3 0 -8 5 -11 10 -3 6 -1 10
4 10 6 0 11 -4 11 -10z m-520 -29 c0 -5 -24 -24 -52 -41 -58 -35 -55 -28 7 19
46 34 45 34 45 22z m500 -43 c0 -13 -23 -5 -28 10 -2 7 2 10 12 6 9 -3 16 -11
16 -16z m-620 -41 c0 -2 -15 -16 -32 -33 l-33 -29 29 33 c28 30 36 37 36 29z
m30 -44 c0 -5 -5 -15 -10 -23 -8 -13 -12 -13 -27 3 -17 17 -17 18 0 11 10 -3
17 -1 17 5 0 6 5 11 10 11 6 0 10 -3 10 -7z m550 -7 c0 -2 -7 -7 -16 -10 -8
-3 -12 -2 -9 4 6 10 25 14 25 6z m-1698 -16 c34 -10 98 -68 98 -90 0 -6 -41
11 -92 37 -75 38 -89 48 -73 54 27 10 25 10 67 -1z m1096 -34 c-7 -8 -15 -12
-17 -11 -5 6 10 25 20 25 5 0 4 -6 -3 -14z m65 8 c9 -9 -4 -35 -14 -28 -5 3
-9 12 -9 20 0 14 12 19 23 8z m-1147 -42 c71 -36 181 -130 149 -128 -11 1 -40
16 -65 35 -77 57 -146 83 -235 89 -79 4 -89 2 -210 -42 -13 -5 -8 3 13 22 78
69 238 80 348 24z m1039 18 c3 -5 1 -10 -4 -10 -6 0 -11 5 -11 10 0 6 2 10 4
10 3 0 8 -4 11 -10z m-34 -17 c-5 -10 -24 -31 -42 -48 -35 -31 -23 -10 20 38
29 31 36 34 22 10z m599 3 c0 -3 -4 -8 -10 -11 -5 -3 -10 -1 -10 4 0 6 5 11
10 11 6 0 10 -2 10 -4z m65 -26 c-3 -5 -11 -10 -16 -10 -6 0 -7 5 -4 10 3 6
11 10 16 10 6 0 7 -4 4 -10z m-690 -60 c-3 -5 -11 -10 -16 -10 -6 0 -7 5 -4
10 3 6 11 10 16 10 6 0 7 -4 4 -10z m165 2 c0 -5 -7 -17 -15 -28 -14 -18 -14
-17 -4 9 12 27 19 34 19 19z m-201 -15 c-2 -1 -13 -9 -24 -17 -19 -14 -19 -14
-6 3 7 9 18 17 24 17 6 0 8 -1 6 -3z m149 -32 c-3 -3 -9 2 -12 12 -6 14 -5 15
5 6 7 -7 10 -15 7 -18z m2 -44 c-5 -11 -15 -23 -21 -27 -6 -3 -3 5 6 20 20 30
30 35 15 7z m-775 -95 c18 -13 18 -15 2 -40 -10 -14 -21 -26 -25 -26 -28 0
-44 63 -19 73 19 8 22 8 42 -7z m1674 10 c-2 -2 -15 -9 -29 -15 -24 -11 -24
-11 -6 3 16 13 49 24 35 12z m-2274 -78 l20 -21 -23 6 c-20 5 -19 1 13 -34 41
-45 44 -55 13 -35 -36 23 -140 46 -206 46 -52 0 -67 -5 -113 -36 l-54 -36 30
32 c90 94 263 137 320 78z m1245 -4 c-13 -33 -12 -40 3 -36 12 4 -12 -29 -30
-41 -15 -9 -17 -47 -3 -47 5 0 14 8 19 18 10 16 10 16 11 -1 0 -10 5 -15 10
-12 6 4 8 11 5 16 -4 5 -1 9 4 9 6 0 11 14 11 30 0 17 4 30 8 30 15 0 7 -45
-15 -82 -29 -48 -13 -49 26 -1 22 27 29 31 24 15 -3 -12 -9 -22 -14 -22 -5 0
-9 -5 -9 -11 0 -5 5 -7 11 -3 7 4 10 1 7 -7 -3 -8 -10 -13 -16 -12 -6 2 -9 -4
-6 -11 4 -11 0 -13 -17 -9 -18 5 -21 3 -16 -10 4 -10 2 -17 -3 -17 -6 0 -10 5
-10 12 0 9 -3 9 -12 0 -8 -8 -8 -15 -1 -24 6 -7 15 -26 21 -43 l10 -30 1 32
c1 25 5 31 16 27 9 -4 15 0 15 8 0 10 11 15 31 16 30 1 31 0 24 -35 -6 -32
-45 -90 -45 -67 -1 19 -50 -92 -50 -113 0 -13 -5 -23 -11 -23 -7 0 -8 -7 -4
-17 10 -23 10 -33 1 -62 -6 -16 -5 -21 3 -17 6 4 11 1 11 -8 0 -16 71 -76 90
-76 6 0 8 -5 5 -10 -4 -6 -9 -31 -11 -56 -6 -47 10 -73 45 -74 10 0 9 4 -5 14
-10 8 -15 18 -11 22 4 5 12 2 16 -5 7 -10 11 -8 16 10 8 23 8 23 15 4 4 -11 3
-23 -2 -26 -6 -4 -6 -15 2 -29 12 -22 11 -22 -16 -17 -27 5 -27 4 -9 -9 10 -8
22 -14 26 -14 5 0 21 -12 36 -27 28 -26 13 -23 -19 4 -11 10 -18 11 -23 3 -5
-8 -13 -6 -26 6 -10 9 -19 12 -19 7 0 -17 29 -36 45 -29 9 3 15 0 15 -9 0 -7
23 -35 50 -61 28 -26 48 -50 45 -53 -3 -2 -24 13 -48 35 -23 22 -50 46 -59 53
-30 22 -22 -14 10 -47 15 -16 38 -41 52 -57 l25 -27 -25 6 c-24 7 -24 6 -6 -8
12 -9 14 -16 7 -16 -8 0 -6 -9 7 -27 10 -16 17 -34 14 -42 -2 -8 3 -18 12 -23
9 -5 14 -13 11 -17 -2 -5 2 -14 10 -21 8 -7 15 -17 15 -22 0 -5 25 -33 55 -63
30 -29 55 -60 55 -68 0 -23 32 -52 80 -75 25 -11 95 -50 155 -87 175 -104 278
-154 400 -192 28 -8 73 -23 100 -33 28 -10 84 -28 125 -40 102 -29 104 -30 97
-36 -7 -7 -261 68 -265 78 -2 5 -7 6 -12 3 -15 -9 -156 46 -292 115 -76 39
-138 68 -138 64 0 -4 -6 -2 -13 4 -7 6 -26 16 -42 22 -29 11 -29 11 -10 -9 19
-22 8 -30 -13 -9 -6 6 -18 13 -25 14 -8 1 -32 13 -54 27 -65 41 -176 97 -182
92 -6 -6 12 -21 119 -94 125 -86 140 -112 25 -42 -55 34 -106 61 -112 61 -7 0
-13 4 -13 8 0 5 -7 9 -15 9 -20 0 -19 -14 2 -26 10 -5 14 -13 10 -17 -4 -4
-21 0 -38 10 -17 10 -33 16 -36 13 -10 -11 9 -46 28 -52 11 -4 18 -9 15 -12
-2 -3 -19 2 -35 10 -19 9 -31 11 -31 5 0 -7 -4 -7 -12 -1 -7 6 -21 13 -31 16
-17 7 -17 6 0 -26 10 -17 42 -63 72 -102 30 -38 48 -64 41 -57 -17 14 -34 16
-25 2 3 -5 2 -10 -4 -10 -5 0 -13 5 -16 10 -3 6 -1 10 4 10 22 0 6 36 -18 42
-8 2 -26 14 -40 28 -20 20 -21 20 -7 3 11 -13 16 -23 11 -23 -4 0 0 -9 11 -21
18 -21 18 -21 -19 1 -24 14 -34 26 -27 30 8 5 6 11 -5 20 -13 11 -15 10 -9 -4
7 -19 -15 -22 -36 -3 -8 6 -4 -1 10 -17 14 -15 41 -39 60 -51 19 -13 51 -37
70 -53 28 -24 31 -30 15 -29 -11 1 -29 10 -39 19 -11 10 -22 15 -25 12 -3 -4
12 -20 34 -38 22 -17 58 -50 81 -73 25 -26 88 -68 163 -107 110 -59 184 -104
155 -95 -27 9 -309 155 -312 162 -2 4 -13 7 -23 7 -11 0 -39 9 -61 20 -23 11
-44 18 -46 15 -3 -3 0 -5 6 -5 7 0 12 -6 12 -14 0 -8 12 -27 26 -43 14 -15 48
-59 75 -96 l50 -69 -48 38 c-68 54 -70 56 -49 48 42 -16 -25 61 -86 99 -26 16
-27 16 -21 0 3 -10 -17 6 -46 35 -28 29 -51 58 -51 65 0 6 -5 19 -11 27 -9 12
-10 11 -4 -5 5 -17 3 -16 -21 5 -58 53 -184 272 -184 319 0 10 -9 26 -20 36
-11 10 -20 24 -20 30 0 7 -7 15 -15 19 -11 4 -13 1 -5 -12 5 -9 24 -53 40 -96
38 -98 63 -141 163 -281 42 -60 61 -92 41 -70 -63 68 -162 229 -229 367 -102
216 -133 337 -141 573 -6 157 10 369 35 450 9 28 9 27 10 -16 1 -35 8 -55 30
-83 18 -22 32 -32 36 -26 4 6 1 18 -6 26 -6 8 -9 18 -5 22 11 10 58 -48 52
-64 -3 -8 -1 -14 4 -14 16 0 11 47 -5 54 -8 3 -15 17 -15 31 0 14 -4 25 -10
25 -5 0 -10 9 -10 20 0 11 5 20 10 20 6 0 10 -6 10 -14 0 -8 12 -24 27 -35 14
-12 37 -36 50 -53 19 -26 23 -29 23 -12 0 11 -6 26 -12 33 -11 11 -9 12 8 7
18 -6 22 -1 27 30 4 20 2 45 -4 55 -7 14 -6 19 2 19 8 0 9 3 0 14 -17 20 -3
79 17 71 8 -3 19 0 24 7 11 18 10 30 -1 23 -6 -3 -8 11 -5 35 3 26 0 48 -10
61 -15 22 -12 85 5 104 5 5 9 17 9 27 0 10 5 18 10 18 6 0 10 8 10 18 0 10 3
22 7 25 12 13 14 0 3 -29z m2469 -79 c0 -5 -11 10 -24 35 -13 25 -24 50 -24
55 0 6 11 -10 24 -35 13 -25 24 -49 24 -55z m-2316 70 c-3 -9 -8 -14 -10 -11
-3 3 -2 9 2 15 9 16 15 13 8 -4z m-35 -40 c-6 -14 -13 -23 -15 -21 -5 5 15 46
22 46 3 0 -1 -11 -7 -25z m-1508 -77 c11 -21 12 -32 4 -45 -9 -15 -26 -18 -90
-19 -61 -1 -89 -6 -122 -23 -24 -12 -46 -21 -48 -19 -7 8 88 99 124 118 54 29
112 23 132 -12z m172 -5 c10 -9 18 -20 18 -25 0 -12 -54 -10 -68 4 -34 34 14
54 50 21z m1090 -45 c-8 -8 -9 -4 -5 13 4 13 8 18 11 10 2 -7 -1 -18 -6 -23z
m5 -44 c-3 -3 -12 -4 -19 -1 -8 3 -5 6 6 6 11 1 17 -2 13 -5z m-40 -36 c-3 -7
-5 -2 -5 12 0 14 2 19 5 13 2 -7 2 -19 0 -25z m78 12 c10 -11 16 -20 13 -20
-3 0 -13 9 -23 20 -10 11 -16 20 -13 20 3 0 13 -9 23 -20z m-1342 -40 c42 -27
93 -87 82 -98 -3 -3 -24 12 -49 32 -53 43 -69 47 -35 9 l24 -28 -27 24 c-15
13 -26 29 -25 35 1 6 -18 21 -43 33 l-44 23 35 0 c22 0 53 -11 82 -30z m-128
-36 c34 -16 82 -60 74 -69 -3 -2 -40 7 -82 20 -100 32 -114 31 -53 -3 85 -47
70 -69 -22 -33 -29 12 -60 17 -73 14 -22 -6 -23 -5 -9 13 57 72 102 88 165 58z
m1316 -88 c5 -6 9 -16 9 -24 0 -12 -3 -12 -15 -2 -9 8 -14 28 -14 54 2 34 3
36 6 11 3 -16 9 -34 14 -39z m-1396 -10 c20 -9 35 -22 35 -32 0 -11 -5 -14
-17 -9 -10 4 -45 13 -78 20 -33 7 -54 14 -47 14 7 1 10 6 7 11 -9 15 61 12
100 -4z m1485 -16 c0 -5 -2 -10 -4 -10 -3 0 -8 5 -11 10 -3 6 -1 10 4 10 6 0
11 -4 11 -10z m30 -20 c0 -5 -2 -10 -4 -10 -3 0 -8 5 -11 10 -3 6 -1 10 4 10
6 0 11 -4 11 -10z m-1547 -28 c29 -25 19 -31 -28 -16 -31 9 -53 10 -70 4 -38
-15 -31 8 8 25 35 15 62 11 90 -13z m1762 18 c3 -5 1 -10 -4 -10 -6 0 -11 5
-11 10 0 6 2 10 4 10 3 0 8 -4 11 -10z m-1817 -66 c12 -8 22 -22 22 -30 0 -17
-8 -17 -40 1 -14 8 -36 15 -50 15 -24 1 -24 1 -6 15 25 19 46 19 74 -1z m-34
-105 c14 -11 26 -27 26 -35 0 -18 -2 -18 -43 6 -19 11 -48 22 -65 23 -23 1
-28 5 -20 15 16 19 72 14 102 -9z m1933 -51 c-3 -7 -5 -2 -5 12 0 14 2 19 5
13 2 -7 2 -19 0 -25z m2620 -10 c-3 -8 -6 -5 -6 6 -1 11 2 17 5 13 3 -3 4 -12
1 -19z m-4616 -65 c41 -25 40 -49 -2 -27 -17 8 -46 16 -65 17 -36 2 -45 13
-16 20 34 9 54 7 83 -10z m2456 -93 c12 0 53 -47 53 -61 0 -32 -82 16 -105 61
-23 45 -18 56 13 27 15 -15 33 -27 39 -27z m-2517 -50 c11 -6 24 -20 31 -31
10 -20 10 -20 -15 -4 -15 10 -43 23 -64 31 l-37 13 33 1 c18 0 42 -5 52 -10z
m4707 -92 c-2 -13 -4 -3 -4 22 0 25 2 35 4 23 2 -13 2 -33 0 -45z m-4706 6
c43 -22 28 -31 -18 -11 -21 9 -47 18 -58 20 -12 3 -6 5 13 6 18 0 47 -6 63
-15z m2254 -74 c3 -5 2 -10 -4 -10 -5 0 -13 5 -16 10 -3 6 -2 10 4 10 5 0 13
-4 16 -10z m570 -30 c3 -5 1 -10 -4 -10 -6 0 -11 5 -11 10 0 6 2 10 4 10 3 0
8 -4 11 -10z m-570 -410 c10 -11 13 -20 7 -20 -6 0 -16 9 -22 20 -6 11 -9 20
-7 20 2 0 12 -9 22 -20z m240 -68 c-3 -3 -11 0 -18 7 -9 10 -8 11 6 5 10 -3
15 -9 12 -12z m125 -8 c0 -2 -9 0 -20 6 -11 6 -20 13 -20 16 0 2 9 0 20 -6 11
-6 20 -13 20 -16z m-230 -30 c0 -2 -9 0 -20 6 -11 6 -20 13 -20 16 0 2 9 0 20
-6 11 -6 20 -13 20 -16z m220 -1 l25 -14 -25 7 c-14 4 -36 13 -50 21 l-25 14
25 -7 c14 -4 36 -13 50 -21z m-194 -75 c5 -8 2 -9 -9 -5 -10 3 -17 2 -17 -3 0
-5 -8 -6 -17 -3 -15 6 -15 7 3 14 27 11 32 10 40 -3z m-167 -132 c-3 -3 -11 5
-18 17 -13 21 -12 21 5 5 10 -10 16 -20 13 -22z m-134 -149 c19 -19 18 -19
-10 1 -16 11 -55 47 -85 78 l-55 58 65 -59 c36 -32 74 -67 85 -78z m100 53
c21 -22 35 -40 30 -40 -10 0 -85 67 -85 76 0 13 20 0 55 -36z m-5 -127 c0 -8
-38 17 -51 33 -9 11 -2 9 19 -6 17 -13 32 -25 32 -27z m2030 -312 c0 -5 -7
-12 -16 -15 -14 -5 -15 -4 -4 9 14 17 20 19 20 6z m-756 -16 c-46 -20 -184
-55 -213 -54 -14 0 28 15 94 34 129 35 169 42 119 20z m716 -9 c0 -2 -8 -10
-17 -17 -16 -13 -17 -12 -4 4 13 16 21 21 21 13z m-827 -253 c-7 -2 -21 -2
-30 0 -10 3 -4 5 12 5 17 0 24 -2 18 -5z m-3503 -47 c25 -8 39 -15 31 -15 -11
-1 -10 -5 5 -16 24 -18 21 -18 -68 0 -40 9 -116 18 -168 21 -112 7 -138 14
-95 25 46 12 244 2 295 -15z m3960 -5 c0 -13 -65 -33 -92 -29 -17 2 -11 7 27
20 60 20 65 21 65 9z m-123 -27 c-3 -3 -12 -4 -19 -1 -8 3 -5 6 6 6 11 1 17
-2 13 -5z m-3899 -30 c28 -8 52 -17 52 -20 0 -3 -9 -18 -21 -32 -19 -25 -20
-27 -2 -40 17 -13 17 -14 -2 -8 -50 14 -269 47 -357 52 -54 4 -95 11 -92 15 3
5 21 9 39 9 19 0 56 8 82 17 98 34 194 36 301 7z m-215 -131 c-7 -2 -19 -2
-25 0 -7 3 -2 5 12 5 14 0 19 -2 13 -5z m54 -9 c-3 -3 -12 -4 -19 -1 -8 3 -5
6 6 6 11 1 17 -2 13 -5z m46 -11 c-7 -2 -19 -2 -25 0 -7 3 -2 5 12 5 14 0 19
-2 13 -5z m-296 -79 c-3 -3 -12 -4 -19 -1 -8 3 -5 6 6 6 11 1 17 -2 13 -5z
m2543 2 c0 -3 -4 -8 -10 -11 -5 -3 -10 -1 -10 4 0 6 5 11 10 11 6 0 10 -2 10
-4z m-2433 -32 c-3 -3 -12 -4 -19 -1 -8 3 -5 6 6 6 11 1 17 -2 13 -5z m2383
-8 c0 -2 -8 -10 -17 -17 -16 -13 -17 -12 -4 4 13 16 21 21 21 13z m468 -62
c35 -13 68 -22 73 -19 5 4 17 1 26 -4 15 -9 13 -10 -14 -11 -40 0 -114 24
-156 52 -34 21 -29 20 71 -18z m-634 3 c-5 -13 -55 -47 -69 -47 -4 0 8 15 27
33 33 32 52 38 42 14z m-2271 -24 c53 -3 97 -9 97 -13 0 -3 -12 -5 -27 -3 -16
2 -84 8 -153 12 -69 4 -100 9 -70 10 30 0 99 -2 153 -6z m3762 -9 c47 -4 87
-10 90 -14 2 -3 -7 -25 -21 -48 l-25 -42 -52 6 c-65 8 -111 33 -115 63 -5 32
6 54 22 48 8 -3 53 -9 101 -13z m-3498 -34 c15 -10 14 -10 -7 -5 -14 3 -53 11
-87 18 -35 6 -63 14 -63 18 0 9 136 -17 157 -31z m-399 13 c-15 -2 -42 -2 -60
0 -18 2 -6 4 27 4 33 0 48 -2 33 -4z m2404 -15 c-7 -7 -12 -8 -12 -2 0 14 12
26 19 19 2 -3 -1 -11 -7 -17z m-2234 -4 c12 -2 22 -8 22 -13 0 -5 -19 -5 -42
0 -24 4 -60 8 -81 9 -21 0 -36 4 -32 9 5 9 78 6 133 -5z m-325 -1 c-13 -2 -33
-2 -45 0 -13 2 -3 4 22 4 25 0 35 -2 23 -4z m420 -25 c41 -15 25 -21 -22 -8
-23 6 -41 16 -41 21 0 7 7 8 18 4 9 -4 30 -12 45 -17z m-190 -14 c38 -9 67
-18 65 -20 -2 -2 -53 8 -114 21 -60 14 -89 22 -64 19 25 -3 76 -12 113 -20z
m254 10 c-3 -3 -12 -4 -19 -1 -8 3 -5 6 6 6 11 1 17 -2 13 -5z m53 -14 c13 -9
13 -10 0 -10 -8 0 -22 5 -30 10 -13 9 -13 10 0 10 8 0 22 -5 30 -10z m-25 -20
c3 -6 -1 -7 -9 -4 -18 7 -21 14 -7 14 6 0 13 -4 16 -10z m-140 -10 c19 -8 19
-9 -2 -9 -12 -1 -25 4 -28 9 -7 12 2 12 30 0z m250 -30 c13 -5 14 -9 5 -9 -8
0 -24 4 -35 9 -13 5 -14 9 -5 9 8 0 24 -4 35 -9z m-684 -30 c109 -22 232 -65
249 -86 10 -11 7 -12 -17 -5 -16 5 -43 16 -61 25 -25 13 -152 47 -297 79 -17
4 -17 5 3 6 13 0 68 -8 123 -19z m3754 0 c-3 -5 -16 -15 -28 -21 -21 -10 -21
-9 2 10 25 23 36 27 26 11z m-60 -40 c-3 -5 -12 -10 -18 -10 -7 0 -6 4 3 10
19 12 23 12 15 0z m-1654 -27 c12 -16 12 -17 -1 -7 -8 6 -22 14 -30 17 -13 5
-12 6 1 6 9 1 23 -7 30 -16z m-1952 -32 l35 -19 -33 -7 c-32 -7 -59 3 -33 12
10 4 8 9 -5 19 -26 19 -4 16 36 -5z m2001 -85 c0 -3 -4 -8 -10 -11 -5 -3 -10
-1 -10 4 0 6 5 11 10 11 6 0 10 -2 10 -4z m-1377 -30 c-10 -13 -22 -21 -27
-18 -5 3 1 13 13 24 31 24 35 23 14 -6z m1342 14 c-3 -5 -11 -10 -16 -10 -6 0
-7 5 -4 10 3 6 11 10 16 10 6 0 7 -4 4 -10z m105 -4 c0 -2 -7 -7 -16 -10 -8
-3 -12 -2 -9 4 6 10 25 14 25 6z m20 -91 c-7 -8 -20 -15 -29 -15 -12 1 -11 5
8 21 26 22 41 18 21 -6z m60 -4 c0 -4 -16 -15 -35 -24 -41 -19 -43 -15 -12 23
16 20 26 25 35 17 6 -5 12 -13 12 -16z m30 -6 c-7 -9 -15 -13 -19 -10 -3 3 1
10 9 15 21 14 24 12 10 -5z m-351 -45 c0 -9 -6 -4 -14 10 -19 33 -19 49 0 24
8 -10 14 -26 14 -34z m426 -310 c3 -6 -4 -10 -17 -10 -18 0 -20 2 -8 10 19 12
18 12 25 0z m115 -194 c0 -6 -7 -1 -15 10 -8 10 -15 23 -15 28 0 6 7 1 15 -10
8 -10 15 -23 15 -28z m-500 -26 c6 -11 9 -20 7 -20 -2 0 -12 9 -22 20 -10 11
-13 20 -7 20 6 0 16 -9 22 -20z m541 -37 c13 -16 12 -17 -3 -4 -10 7 -18 15
-18 17 0 8 8 3 21 -13z"/>
<path d="M3705 4670 c-3 -5 1 -10 9 -10 9 0 16 5 16 10 0 6 -4 10 -9 10 -6 0
-13 -4 -16 -10z"/>
<path d="M2811 3703 c-7 -8 -11 -15 -10 -16 2 -1 14 -8 26 -14 28 -16 36 -4
14 23 -14 18 -19 19 -30 7z"/>
<path d="M2930 3676 c0 -2 7 -9 15 -16 13 -11 14 -10 9 4 -5 14 -24 23 -24 12z"/>
<path d="M2927 3643 c-4 -6 2 -18 13 -28 23 -21 27 -8 7 20 -8 11 -16 14 -20
8z"/>
<path d="M2987 3632 c-3 -4 -2 -22 0 -40 l5 -33 14 27 c8 14 14 30 14 34 0 11
-28 21 -33 12z"/>
<path d="M3100 2730 c0 -5 5 -10 11 -10 5 0 7 5 4 10 -3 6 -8 10 -11 10 -2 0
-4 -4 -4 -10z"/>
<path d="M3120 2509 c0 -17 63 -69 95 -78 56 -15 49 -5 -44 67 -31 24 -51 28
-51 11z"/>
<path d="M5109 1664 c-38 -42 -163 -120 -237 -148 -50 -19 -72 -34 -81 -52
-17 -38 -14 -58 7 -49 9 4 31 13 47 19 17 6 57 30 90 54 32 23 65 40 73 37 7
-2 10 -1 7 4 -3 5 3 12 13 15 10 4 40 36 66 72 50 67 58 94 15 48z"/>
<path d="M4442 1130 c0 -14 2 -19 5 -12 2 6 2 18 0 25 -3 6 -5 1 -5 -13z"/>
<path d="M4544 1108 l-19 -23 23 19 c21 18 27 26 19 26 -2 0 -12 -10 -23 -22z"/>
<path d="M4479 1053 l-24 -28 28 24 c25 23 32 31 24 31 -2 0 -14 -12 -28 -27z"/>
<path d="M360 1000 c20 -13 53 -13 45 0 -3 6 -18 10 -33 10 -21 0 -24 -2 -12
-10z"/>
<path d="M430 990 c8 -5 20 -10 25 -10 6 0 3 5 -5 10 -8 5 -19 10 -25 10 -5 0
-3 -5 5 -10z"/>
<path d="M4330 974 c-22 -6 -44 -44 -32 -56 5 -5 24 5 48 26 39 35 34 43 -16
30z"/>
<path d="M490 951 c0 -5 5 -13 10 -16 6 -3 10 -2 10 4 0 5 -4 13 -10 16 -5 3
-10 2 -10 -4z"/>
<path d="M4021 841 c-25 -7 -42 -31 -21 -31 13 0 70 28 70 35 0 6 -19 5 -49
-4z"/>
<path d="M4005 790 c-3 -5 -1 -10 4 -10 6 0 11 5 11 10 0 6 -2 10 -4 10 -3 0
-8 -4 -11 -10z"/>
<path d="M2826 410 c4 -8 17 -28 29 -45 12 -16 25 -38 28 -47 4 -10 13 -18 22
-18 26 0 22 8 -45 80 -23 25 -38 38 -34 30z"/>
<path d="M3069 266 c39 -42 51 -62 51 -87 0 -23 9 -40 35 -64 20 -18 35 -36
33 -41 -1 -5 6 -24 17 -42 19 -31 21 -32 93 -32 70 0 72 1 62 20 -6 11 -19 20
-30 20 -20 0 -189 162 -191 183 -1 7 -2 17 -4 22 -1 6 -3 15 -3 21 -2 14 -75
54 -97 54 -13 0 -3 -15 34 -54z"/>
<path d="M2740 270 c0 -8 9 -26 20 -40 l21 -25 -13 30 c-15 38 -28 54 -28 35z"/>
<path d="M2958 223 c-9 -10 -19 -28 -23 -41 -4 -15 -12 -21 -21 -18 -18 7 -18
-11 1 -30 8 -9 15 -20 15 -25 0 -15 -18 -10 -32 9 -7 10 -21 21 -31 25 -15 6
-17 3 -12 -14 5 -16 4 -20 -6 -15 -8 4 -2 -2 14 -14 16 -13 27 -31 27 -46 0
-14 4 -23 9 -20 5 3 11 -3 14 -14 4 -16 14 -20 46 -20 39 0 40 1 31 25 -5 13
-6 26 -2 28 12 7 46 -9 66 -32 13 -14 31 -21 55 -21 l35 0 -31 28 c-29 25 -48
63 -85 167 -16 45 -45 57 -70 28z m-8 -186 c0 -16 -18 3 -23 25 -6 22 -5 22 8
4 8 -11 15 -24 15 -29z"/>
</g>
</svg>
